<?xml version="1.0" encoding="UTF-8"?>
<svg xmlns="http://www.w3.org/2000/svg" xmlns:xlink="http://www.w3.org/1999/xlink" width="375pt" height="374.999991pt" viewBox="0 0 375 374.999991" version="1.2">
<defs>
<clipPath id="clip1">
  <path d="M 114.136719 37.5 L 261 37.5 L 261 187.5 L 114.136719 187.5 Z M 114.136719 37.5 "/>
</clipPath>
<clipPath id="clip2">
  <path d="M 113.996094 158.558594 L 262.496094 158.558594 L 262.496094 308.558594 L 113.996094 308.558594 Z M 113.996094 158.558594 "/>
</clipPath>
</defs>
<g id="surface1">
<path style=" stroke:none;fill-rule:nonzero;fill:rgb(13.328552%,12.939453%,12.939453%);fill-opacity:1;" d="M 187.5 24.570312 C 185.046875 24.570312 182.589844 24.628906 180.140625 24.75 C 177.6875 24.871094 175.242188 25.050781 172.796875 25.292969 C 170.355469 25.53125 167.917969 25.832031 165.492188 26.191406 C 163.0625 26.550781 160.644531 26.972656 158.238281 27.449219 C 155.828125 27.929688 153.433594 28.46875 151.054688 29.0625 C 148.671875 29.660156 146.304688 30.316406 143.957031 31.027344 C 141.609375 31.742188 139.277344 32.511719 136.964844 33.335938 C 134.65625 34.164062 132.367188 35.046875 130.097656 35.988281 C 127.828125 36.925781 125.585938 37.921875 123.367188 38.96875 C 121.148438 40.019531 118.957031 41.125 116.789062 42.28125 C 114.625 43.4375 112.488281 44.648438 110.382812 45.910156 C 108.277344 47.171875 106.207031 48.484375 104.164062 49.847656 C 102.125 51.210938 100.117188 52.625 98.144531 54.085938 C 96.171875 55.550781 94.238281 57.058594 92.339844 58.617188 C 90.445312 60.175781 88.585938 61.777344 86.765625 63.425781 C 84.945312 65.074219 83.167969 66.765625 81.433594 68.503906 C 79.699219 70.238281 78.007812 72.015625 76.355469 73.835938 C 74.707031 75.652344 73.105469 77.511719 71.546875 79.410156 C 69.992188 81.308594 68.480469 83.242188 67.019531 85.214844 C 65.554688 87.1875 64.144531 89.191406 62.78125 91.234375 C 61.414062 93.273438 60.101562 95.347656 58.839844 97.453125 C 57.578125 99.558594 56.367188 101.695312 55.210938 103.859375 C 54.054688 106.023438 52.953125 108.214844 51.902344 110.4375 C 50.851562 112.65625 49.859375 114.898438 48.917969 117.167969 C 47.980469 119.433594 47.09375 121.722656 46.269531 124.035156 C 45.441406 126.347656 44.671875 128.675781 43.957031 131.027344 C 43.246094 133.375 42.589844 135.742188 41.996094 138.121094 C 41.398438 140.503906 40.859375 142.898438 40.382812 145.304688 C 39.902344 147.714844 39.484375 150.132812 39.125 152.558594 C 38.761719 154.988281 38.464844 157.421875 38.222656 159.867188 C 37.980469 162.308594 37.800781 164.757812 37.679688 167.207031 C 37.558594 169.660156 37.5 172.113281 37.5 174.570312 C 37.5 177.023438 37.558594 179.476562 37.679688 181.929688 C 37.800781 184.382812 37.980469 186.828125 38.222656 189.273438 C 38.464844 191.714844 38.761719 194.148438 39.125 196.578125 C 39.484375 199.007812 39.902344 201.425781 40.382812 203.832031 C 40.859375 206.238281 41.398438 208.632812 41.996094 211.015625 C 42.589844 213.398438 43.246094 215.761719 43.957031 218.113281 C 44.671875 220.460938 45.441406 222.792969 46.269531 225.101562 C 47.09375 227.414062 47.980469 229.703125 48.917969 231.972656 C 49.859375 234.238281 50.851562 236.484375 51.902344 238.703125 C 52.953125 240.921875 54.054688 243.113281 55.210938 245.277344 C 56.367188 247.445312 57.578125 249.578125 58.839844 251.683594 C 60.101562 253.789062 61.414062 255.863281 62.78125 257.90625 C 64.144531 259.945312 65.554688 261.953125 67.019531 263.921875 C 68.480469 265.894531 69.992188 267.832031 71.546875 269.726562 C 73.105469 271.625 74.707031 273.484375 76.355469 275.304688 C 78.007812 277.121094 79.699219 278.898438 81.433594 280.636719 C 83.167969 282.371094 84.945312 284.0625 86.765625 285.710938 C 88.585938 287.359375 90.445312 288.964844 92.339844 290.519531 C 94.238281 292.078125 96.171875 293.585938 98.144531 295.050781 C 100.117188 296.511719 102.125 297.925781 104.164062 299.289062 C 106.207031 300.652344 108.277344 301.964844 110.382812 303.226562 C 112.488281 304.492188 114.625 305.699219 116.789062 306.855469 C 118.957031 308.015625 121.148438 309.117188 123.367188 310.167969 C 125.585938 311.21875 127.828125 312.210938 130.097656 313.152344 C 132.367188 314.089844 134.65625 314.972656 136.964844 315.800781 C 139.277344 316.628906 141.609375 317.398438 143.957031 318.109375 C 146.304688 318.824219 148.671875 319.476562 151.054688 320.074219 C 153.433594 320.671875 155.828125 321.207031 158.238281 321.6875 C 160.644531 322.164062 163.0625 322.585938 165.492188 322.945312 C 167.917969 323.304688 170.355469 323.605469 172.796875 323.847656 C 175.242188 324.085938 177.6875 324.269531 180.140625 324.386719 C 182.589844 324.507812 185.046875 324.570312 187.5 324.570312 C 189.953125 324.570312 192.410156 324.507812 194.859375 324.386719 C 197.3125 324.269531 199.757812 324.085938 202.203125 323.847656 C 204.644531 323.605469 207.082031 323.304688 209.507812 322.945312 C 211.9375 322.585938 214.355469 322.164062 216.761719 321.6875 C 219.171875 321.207031 221.566406 320.671875 223.945312 320.074219 C 226.328125 319.476562 228.695312 318.824219 231.042969 318.109375 C 233.390625 317.398438 235.722656 316.628906 238.035156 315.800781 C 240.34375 314.972656 242.632812 314.089844 244.902344 313.152344 C 247.171875 312.210938 249.414062 311.21875 251.632812 310.167969 C 253.851562 309.117188 256.042969 308.015625 258.210938 306.855469 C 260.375 305.699219 262.511719 304.488281 264.617188 303.226562 C 266.722656 301.964844 268.792969 300.652344 270.835938 299.289062 C 272.875 297.925781 274.882812 296.511719 276.855469 295.050781 C 278.828125 293.585938 280.761719 292.078125 282.660156 290.519531 C 284.554688 288.964844 286.414062 287.359375 288.234375 285.710938 C 290.050781 284.0625 291.832031 282.371094 293.566406 280.636719 C 295.300781 278.898438 296.992188 277.121094 298.644531 275.304688 C 300.292969 273.484375 301.894531 271.625 303.453125 269.726562 C 305.007812 267.832031 306.519531 265.894531 307.980469 263.921875 C 309.445312 261.953125 310.855469 259.945312 312.21875 257.90625 C 313.585938 255.863281 314.898438 253.789062 316.160156 251.683594 C 317.421875 249.578125 318.632812 247.445312 319.789062 245.277344 C 320.945312 243.113281 322.046875 240.921875 323.097656 238.703125 C 324.148438 236.484375 325.140625 234.238281 326.082031 231.972656 C 327.019531 229.703125 327.90625 227.414062 328.730469 225.101562 C 329.558594 222.792969 330.328125 220.460938 331.039062 218.113281 C 331.753906 215.761719 332.40625 213.398438 333.003906 211.015625 C 333.601562 208.632812 334.140625 206.238281 334.617188 203.832031 C 335.097656 201.425781 335.515625 199.007812 335.875 196.578125 C 336.238281 194.148438 336.535156 191.714844 336.777344 189.273438 C 337.019531 186.828125 337.199219 184.382812 337.320312 181.929688 C 337.441406 179.476562 337.5 177.023438 337.5 174.570312 C 337.5 172.113281 337.441406 169.660156 337.320312 167.207031 C 337.199219 164.757812 337.019531 162.308594 336.777344 159.867188 C 336.535156 157.421875 336.238281 154.988281 335.875 152.558594 C 335.515625 150.132812 335.097656 147.714844 334.617188 145.304688 C 334.140625 142.898438 333.601562 140.503906 333.003906 138.121094 C 332.40625 135.742188 331.753906 133.375 331.039062 131.027344 C 330.328125 128.675781 329.558594 126.347656 328.730469 124.035156 C 327.90625 121.722656 327.019531 119.433594 326.082031 117.167969 C 325.140625 114.898438 324.148438 112.65625 323.097656 110.4375 C 322.046875 108.214844 320.945312 106.023438 319.789062 103.859375 C 318.632812 101.695312 317.421875 99.558594 316.160156 97.453125 C 314.898438 95.347656 313.585938 93.273438 312.21875 91.234375 C 310.855469 89.191406 309.445312 87.1875 307.980469 85.214844 C 306.519531 83.242188 305.007812 81.308594 303.453125 79.410156 C 301.894531 77.511719 300.292969 75.652344 298.644531 73.835938 C 296.992188 72.015625 295.300781 70.238281 293.566406 68.503906 C 291.832031 66.765625 290.050781 65.074219 288.234375 63.425781 C 286.414062 61.777344 284.554688 60.175781 282.660156 58.617188 C 280.761719 57.058594 278.828125 55.550781 276.855469 54.085938 C 274.882812 52.625 272.875 51.210938 270.835938 49.847656 C 268.792969 48.484375 266.722656 47.171875 264.617188 45.910156 C 262.511719 44.648438 260.375 43.4375 258.210938 42.28125 C 256.042969 41.125 253.851562 40.019531 251.632812 38.96875 C 249.414062 37.921875 247.171875 36.925781 244.902344 35.988281 C 242.632812 35.046875 240.34375 34.164062 238.035156 33.335938 C 235.722656 32.511719 233.390625 31.742188 231.042969 31.027344 C 228.695312 30.316406 226.328125 29.660156 223.945312 29.0625 C 221.566406 28.46875 219.171875 27.929688 216.761719 27.449219 C 214.355469 26.972656 211.9375 26.550781 209.507812 26.191406 C 207.082031 25.832031 204.644531 25.53125 202.203125 25.292969 C 199.757812 25.050781 197.3125 24.871094 194.859375 24.75 C 192.410156 24.628906 189.953125 24.570312 187.5 24.570312 Z M 187.5 24.570312 "/>
<g clip-path="url(#clip1)" clip-rule="nonzero">
<path style=" stroke:none;fill-rule:nonzero;fill:rgb(97.24884%,97.24884%,100%);fill-opacity:1;" d="M 194.265625 187.5 C 221.871094 187.5 244.058594 177.59375 258.484375 158.78125 L 260.820312 155.703125 L 225.707031 124.402344 L 222.957031 127.898438 C 215.285156 137.640625 206.859375 142.21875 196.601562 142.21875 C 179.839844 142.21875 168.996094 130.5625 168.996094 112.5 C 168.996094 94.4375 179.839844 82.78125 196.601562 82.78125 C 206.945312 82.78125 215.285156 87.359375 222.957031 97.101562 L 225.707031 100.597656 L 260.820312 69.296875 L 258.484375 66.21875 C 243.972656 47.40625 221.789062 37.5 194.265625 37.5 C 147.980469 37.5 114.453125 69.046875 114.453125 112.5 C 114.453125 155.953125 147.980469 187.5 194.265625 187.5 Z M 194.265625 187.5 "/>
</g>
<g clip-path="url(#clip2)" clip-rule="nonzero">
<path style=" stroke:none;fill-rule:nonzero;fill:rgb(70.588684%,70.588684%,70.588684%);fill-opacity:1;" d="M 182.667969 158.632812 C 160.691406 158.632812 137.800781 165.367188 121.320312 176.59375 L 119.488281 177.839844 L 119.488281 241.375 L 167.519531 241.375 L 167.519531 205.867188 C 171.515625 204.535156 175.59375 203.871094 180.003906 203.871094 C 197.152344 203.871094 208.140625 215.511719 208.140625 233.558594 C 208.140625 252.105469 197.402344 263.246094 179.421875 263.246094 C 168.769531 263.246094 160.109375 259.007812 152.203125 249.777344 L 149.457031 246.617188 L 113.996094 277.71875 L 116.492188 280.792969 C 131.308594 298.921875 153.867188 308.488281 181.667969 308.488281 C 204.394531 308.488281 224.953125 301.085938 239.605469 287.613281 C 254.339844 273.976562 262.496094 254.847656 262.496094 233.558594 C 262.496094 190.148438 228.949219 158.632812 182.667969 158.632812 Z M 182.667969 158.632812 "/>
</g>
</g>
</svg>
